<svg width="22" height="22" viewBox="0 0 22 22" fill="none" xmlns="http://www.w3.org/2000/svg">
<path opacity="0.2" d="M17.8085 4.61709V7.91497H3.29785V4.61709C3.29785 4.44216 3.36734 4.2744 3.49104 4.1507C3.61473 4.02701 3.7825 3.95752 3.95743 3.95752H17.1489C17.3238 3.95752 17.4916 4.02701 17.6153 4.1507C17.739 4.2744 17.8085 4.44216 17.8085 4.61709Z" fill="white"/>
<path d="M17.1489 3.29791H15.1702V2.63833C15.1702 2.4634 15.1007 2.29564 14.977 2.17194C14.8533 2.04825 14.6856 1.97876 14.5106 1.97876C14.3357 1.97876 14.1679 2.04825 14.0443 2.17194C13.9206 2.29564 13.8511 2.4634 13.8511 2.63833V3.29791H7.25533V2.63833C7.25533 2.4634 7.18584 2.29564 7.06214 2.17194C6.93845 2.04825 6.77068 1.97876 6.59575 1.97876C6.42082 1.97876 6.25306 2.04825 6.12936 2.17194C6.00567 2.29564 5.93618 2.4634 5.93618 2.63833V3.29791H3.95745C3.60759 3.29791 3.27206 3.43689 3.02468 3.68428C2.77729 3.93167 2.63831 4.2672 2.63831 4.61706V17.8085C2.63831 18.1584 2.77729 18.4939 3.02468 18.7413C3.27206 18.9887 3.60759 19.1277 3.95745 19.1277H17.1489C17.4988 19.1277 17.8343 18.9887 18.0817 18.7413C18.3291 18.4939 18.4681 18.1584 18.4681 17.8085V4.61706C18.4681 4.2672 18.3291 3.93167 18.0817 3.68428C17.8343 3.43689 17.4988 3.29791 17.1489 3.29791ZM5.93618 4.61706V5.27663C5.93618 5.45156 6.00567 5.61933 6.12936 5.74302C6.25306 5.86672 6.42082 5.93621 6.59575 5.93621C6.77068 5.93621 6.93845 5.86672 7.06214 5.74302C7.18584 5.61933 7.25533 5.45156 7.25533 5.27663V4.61706H13.8511V5.27663C13.8511 5.45156 13.9206 5.61933 14.0443 5.74302C14.1679 5.86672 14.3357 5.93621 14.5106 5.93621C14.6856 5.93621 14.8533 5.86672 14.977 5.74302C15.1007 5.61933 15.1702 5.45156 15.1702 5.27663V4.61706H17.1489V7.25536H3.95745V4.61706H5.93618ZM17.1489 17.8085H3.95745V8.5745H17.1489V17.8085Z" fill="white"/>
</svg>
